{
    "accessors": [
        {
            "bufferView": 0,
            "byteOffset": 0,
            "componentType": 5125,
            "count": 2538,
            "name": "",
            "normalized": false,
            "type": "SCALAR"
        },
        {
            "bufferView": 1,
            "byteOffset": 0,
            "componentType": 5126,
            "count": 2538,
            "max": [
                -20.2734546661377,
                10.1410570144653,
                1.0
            ],
            "min": [
                -24.7951965332031,
                0.346263647079468,
                -1.0
            ],
            "name": "",
            "normalized": false,
            "type": "VEC3"
        },
        {
            "bufferView": 2,
            "byteOffset": 0,
            "componentType": 5126,
            "count": 2538,
            "max": [
                0.999821484088898,
                0.977329313755035,
                0.999999821186066
            ],
            "min": [
                -0.999715805053711,
                -0.987919747829437,
                -0.99999988079071
            ],
            "name": "",
            "normalized": false,
            "type": "VEC3"
        },
        {
            "bufferView": 3,
            "byteOffset": 0,
            "componentType": 5126,
            "count": 2538,
            "max": [
                1.0,
                1.0
            ],
            "min": [
                0.0,
                0.0
            ],
            "name": "",
            "normalized": false,
            "type": "VEC2"
        },
        {
            "bufferView": 4,
            "byteOffset": 0,
            "componentType": 5125,
            "count": 2160,
            "name": "",
            "normalized": false,
            "type": "SCALAR"
        },
        {
            "bufferView": 5,
            "byteOffset": 0,
            "componentType": 5126,
            "count": 2160,
            "max": [
                -12.6365041732788,
                10.0585784912109,
                1.0
            ],
            "min": [
                -17.0713138580322,
                0.375250190496445,
                -1.0
            ],
            "name": "",
            "normalized": false,
            "type": "VEC3"
        },
        {
            "bufferView": 6,
            "byteOffset": 0,
            "componentType": 5126,
            "count": 2160,
            "max": [
                0.999811291694641,
                0.988455772399902,
                0.99999988079071
            ],
            "min": [
                -0.998462975025177,
                -0.991499543190002,
                -0.999999940395355
            ],
            "name": "",
            "normalized": false,
            "type": "VEC3"
        },
        {
            "bufferView": 7,
            "byteOffset": 0,
            "componentType": 5126,
            "count": 2160,
            "max": [
                1.0,
                1.0
            ],
            "min": [
                0.0,
                0.0
            ],
            "name": "",
            "normalized": false,
            "type": "VEC2"
        }
    ],
    "asset": {
        "copyright": "Advanced Micro Devices Copyright 2017",
        "generator": "Radeon ProRender GLTF Library",
        "minVersion": "2.0",
        "version": "2.0"
    },
    "bufferViews": [
        {
            "buffer": 0,
            "byteLength": 10152,
            "byteOffset": 0,
            "name": "",
            "target": 34963
        },
        {
            "buffer": 0,
            "byteLength": 30456,
            "byteOffset": 10152,
            "byteStride": 12,
            "name": "",
            "target": 34962
        },
        {
            "buffer": 0,
            "byteLength": 30456,
            "byteOffset": 40608,
            "byteStride": 12,
            "name": "",
            "target": 34962
        },
        {
            "buffer": 0,
            "byteLength": 20304,
            "byteOffset": 71064,
            "byteStride": 8,
            "name": "",
            "target": 34962
        },
        {
            "buffer": 0,
            "byteLength": 8640,
            "byteOffset": 91368,
            "name": "",
            "target": 34963
        },
        {
            "buffer": 0,
            "byteLength": 25920,
            "byteOffset": 100008,
            "byteStride": 12,
            "name": "",
            "target": 34962
        },
        {
            "buffer": 0,
            "byteLength": 25920,
            "byteOffset": 125928,
            "byteStride": 12,
            "name": "",
            "target": 34962
        },
        {
            "buffer": 0,
            "byteLength": 17280,
            "byteOffset": 151848,
            "byteStride": 8,
            "name": "",
            "target": 34962
        }
    ],
    "buffers": [
        {
            "byteLength": 169128,
            "name": "",
            "uri": "autoBuffersCollector_0.bin"
        }
    ],
    "cameras": [
        {
            "extensions": {
                "AMD_RPR_camera": {
                    "angularMotion": [
                        1.0,
                        0.0,
                        0.0,
                        0.0
                    ],
                    "apertureBlades": 0,
                    "cameraMode": 1,
                    "exposure": 1.0,
                    "farPlane": 100.0,
                    "focalLength": 35.0,
                    "focalTilt": 0.0,
                    "focusDistance": 0.0499999970197678,
                    "fstop": 3.40282346638529e+38,
                    "ipd": 0.063000001013279,
                    "lookAt": [
                        0.0,
                        0.0,
                        -1.0
                    ],
                    "orthoHeight": 1.0,
                    "orthoWidth": 1.0,
                    "position": [
                        0.0,
                        0.0,
                        0.0
                    ],
                    "sensorSize": [
                        35.999927520752,
                        20.2499599456787
                    ],
                    "up": [
                        0.0,
                        1.0,
                        0.0
                    ],
                    "use_sensorSize_V2": true
                }
            },
            "name": "perspShape",
            "perspective": {
                "aspectRatio": 1.77777767181396,
                "yfov": 0.563195824623108,
                "zfar": 100.0,
                "znear": 0.00999999977648258
            },
            "type": "perspective"
        }
    ],
    "extensions": {
        "AMD_RPR_lights": {
            "lights": [
                {
                    "directional": {
                        "radiantPower": [
                            2.5,
                            2.5,
                            2.5
                        ],
                        "shadowSoftness": 0.00555555569007993
                    },
                    "extras": {
                        "rpr.light.extra.parameters": { }
                    },
                    "name": "",
                    "transform": [
                        0.934023022651672,
                        0.134578108787537,
                        0.330892235040665,
                        0.0,
                        0.00404782826080918,
                        0.922270059585571,
                        -0.386524975299835,
                        0.0,
                        -0.357189804315567,
                        0.362362623214722,
                        0.860876739025116,
                        0.0,
                        -0.170951142907143,
                        4.23037385940552,
                        24.5291118621826,
                        1.0
                    ],
                    "type": "DIRECTIONAL"
                }
            ]
        },
        "AMD_RPR_material": {
            "nodes": [
                {
                    "inputs": [
                        {
                            "name": "color",
                            "type": "FLOAT4",
                            "value": [
                                0.400000005960464,
                                0.400000005960464,
                                0.400000005960464,
                                0.0
                            ]
                        },
                        {
                            "name": "normal",
                            "type": "NODE",
                            "value": -1
                        },
                        {
                            "name": "roughness",
                            "type": "NODE",
                            "value": -1
                        }
                    ],
                    "name": "lambert1",
                    "type": "DIFFUSE"
                }
            ]
        },
        "AMD_RPR_post_effects": {
            "postEffects": [
                {
                    "name": "",
                    "normalization": { },
                    "type": 3
                }
            ]
        },
        "KHR_lights_punctual": {
            "lights": [
                {
                    "color": [
                        0.577350258827209,
                        0.577350258827209,
                        0.577350258827209
                    ],
                    "intensity": 4.33012723922729,
                    "type": "directional"
                }
            ]
        }
    },
    "extensionsUsed": [
        "AMD_RPR_post_effects",
        "AMD_RPR_camera",
        "AMD_RPR_lights",
        "AMD_RPR_scene_lights",
        "AMD_RPR_material",
        "AMD_RPR_heteroVolumes",
        "AMD_RPR_grids",
        "KHR_lights_punctual"
    ],
    "extras": {
        "rpr.context.parameters": {
            "aaenabled": 1,
            "activepixelcount": 0,
            "aoraycount": 1,
            "aoraylength": 5.0,
            "as.minspp": 8,
            "as.threshold": 0.0,
            "as.tilesize": 16,
            "clippingplane": [
                0.0,
                0.0,
                0.0,
                0.0
            ],
            "cpuname": "",
            "cputhreadlimit": 128,
            "displaygamma": 1.0,
            "framecount": 4294967295,
            "gpu0name": "AMD Radeon Pro 560X (Metal)",
            "gpu10name": "",
            "gpu11name": "",
            "gpu12name": "",
            "gpu13name": "",
            "gpu14name": "",
            "gpu15name": "",
            "gpu1name": "",
            "gpu2name": "",
            "gpu3name": "",
            "gpu4name": "",
            "gpu5name": "",
            "gpu6name": "",
            "gpu7name": "",
            "gpu8name": "",
            "gpu9name": "",
            "imagefilter.blackmanharris.radius": 2.0,
            "imagefilter.box.radius": 1.0,
            "imagefilter.gaussian.radius": 2.0,
            "imagefilter.lanczos.radius": 2.0,
            "imagefilter.mitchell.radius": 1.0,
            "imagefilter.triangle.radius": 1.5,
            "imagefilter.type": 4,
            "iterations": 1,
            "lasterror": "Property not found",
            "maxdepth.diffuse": 65535,
            "maxdepth.glossy": 65535,
            "maxdepth.refraction": 4095,
            "maxdepth.refraction.glossy": 65535,
            "maxdepth.shadow": 2,
            "maxrecursion": 2,
            "metalperformanceshader": 0,
            "mipmaplodoffset": -1.0,
            "ooccachepath": "",
            "ooctexcache": 0,
            "pdfthreshold": 0.0,
            "pluginversion": 3731615085,
            "preview": 0,
            "radianceclamp": 1.0,
            "raycastepsilon": 1.99999994947575e-05,
            "renderlayermask": 4294967295,
            "rendermode": 1,
            "roughnesscap": 0.0,
            "rpr_api_version": 2097416,
            "samplertype": 3,
            "singlelevelbvh": 0,
            "stacksize": 64,
            "texturecompression": 0,
            "texturegamma": 1.0,
            "tilesize": 2048.0,
            "tonemapping.exponential.intensity": 1.0,
            "tonemapping.linear.scale": 1.0,
            "tonemapping.photolinear.exposure": 0.00100000004749745,
            "tonemapping.photolinear.fstop": 2.79999995231628,
            "tonemapping.photolinear.sensitivity": 100.0,
            "tonemapping.reinhard02.burn": 3.75,
            "tonemapping.reinhard02.postscale": 1.20000004768372,
            "tonemapping.reinhard02.prescale": 1.0,
            "tonemapping.type": 0,
            "transparentbackground": 0,
            "usertexture0": "out=make_float4(sin(_uv.x*PI)*sin(_uv.y*PI),0.0f,0.f,0.f);",
            "usertexture1": "out=make_float4(1.f,0.f,0.f,0.f);",
            "usertexture2": "out=make_float4(0.f,1.f,0.f,0.f);",
            "usertexture3": "out=make_float4(0.f,0.f,1.f,0.f);",
            "xflip": 0,
            "yflip": 1
        },
        "rpr.debuginfo": {
            "ErrorMessage": "No Error",
            "GLTF_EXPORTER_VERSION": 11,
            "GLTF_EXPORTER_VERSION_MINOR": 107,
            "RPR_API_VERSION": "0x0x200108",
            "WarningMessage": "No Warning",
            "plugin.name": "Tahoe"
        },
        "rpr.extraparameters.buffer": { },
        "rpr.extraparameters.float": { },
        "rpr.extraparameters.float2": { },
        "rpr.extraparameters.float4": { },
        "rpr.extraparameters.int": { },
        "rpr.extraparameters.string": { }
    },
    "materials": [
        {
            "alphaMode": "OPAQUE",
            "doubleSided": true,
            "extensions": {
                "AMD_RPR_material": {
                    "materialNodeIndex": 0
                }
            },
            "name": "lambert1",
            "pbrMetallicRoughness": {
                "baseColorFactor": [
                    0.400000005960464,
                    0.400000005960464,
                    0.400000005960464,
                    1.0
                ],
                "metallicFactor": 0.0,
                "roughnessFactor": 1.0
            }
        },
        {
            "alphaMode": "OPAQUE",
            "doubleSided": true,
            "extensions": {
                "AMD_RPR_material": {
                    "materialNodeIndex": 0
                }
            },
            "name": "lambert1",
            "pbrMetallicRoughness": {
                "baseColorFactor": [
                    0.400000005960464,
                    0.400000005960464,
                    0.400000005960464,
                    1.0
                ],
                "metallicFactor": 0.0,
                "roughnessFactor": 1.0
            }
        }
    ],
    "meshes": [
        {
            "name": "nurbsToPolyShape1_0",
            "primitives": [
                {
                    "attributes": {
                        "NORMAL": 2,
                        "POSITION": 1,
                        "TEXCOORD_0": 3
                    },
                    "indices": 0,
                    "material": 0,
                    "mode": 4
                }
            ]
        },
        {
            "name": "extrudedSurfaceShape1_0",
            "primitives": [
                {
                    "attributes": {
                        "NORMAL": 6,
                        "POSITION": 5,
                        "TEXCOORD_0": 7
                    },
                    "indices": 4,
                    "material": 1,
                    "mode": 4
                }
            ]
        }
    ],
    "nodes": [
        {
            "camera": 0,
            "matrix": [
                -1.0,
                0.0,
                -0.0,
                0.0,
                0.0,
                1.0,
                0.0,
                0.0,
                -0.0,
                -0.0,
                1.0,
                0.0,
                0.0,
                0.0,
                0.0,
                1.0
            ],
            "name": ""
        },
        {
            "extensions": {
                "AMD_RPR_lights": {
                    "light": 0
                },
                "KHR_lights_punctual": {
                    "light": 0
                }
            },
            "matrix": [
                0.934023022651672,
                0.134578108787537,
                0.330892235040665,
                0.0,
                0.00404782826080918,
                0.922270059585571,
                -0.386524975299835,
                0.0,
                -0.357189804315567,
                0.362362623214722,
                0.860876739025116,
                0.0,
                -0.170951142907143,
                4.23037385940552,
                24.5291118621826,
                1.0
            ],
            "name": ""
        },
        {
            "extras": {
                "rpr.shape.parameters": {
                    "angularMotion": [
                        0.0,
                        1.0,
                        0.0,
                        0.0
                    ],
                    "displacementScale": [
                        0.0,
                        1.0
                    ],
                    "layerMask": 4294967295,
                    "linearMotion": [
                        0.0,
                        0.0,
                        0.0,
                        0.0
                    ],
                    "objectGroupID": 0,
                    "shadow": 1,
                    "shadowCatcher": 0,
                    "subdivisionBoundaryInterop": 2,
                    "subdivisionCreaseWeight": 0.0,
                    "subdivisionFactor": 0,
                    "visibilityPrimaryOnly": 1
                }
            },
            "matrix": [
                0.00999999977648258,
                0.0,
                0.0,
                0.0,
                0.0,
                0.00999999977648258,
                0.0,
                0.0,
                0.0,
                0.0,
                0.00999999977648258,
                0.0,
                0.0,
                0.0,
                0.0,
                1.0
            ],
            "mesh": 0,
            "name": ""
        },
        {
            "extras": {
                "rpr.shape.parameters": {
                    "angularMotion": [
                        0.0,
                        1.0,
                        0.0,
                        0.0
                    ],
                    "displacementScale": [
                        0.0,
                        1.0
                    ],
                    "layerMask": 4294967295,
                    "linearMotion": [
                        0.0,
                        0.0,
                        0.0,
                        0.0
                    ],
                    "objectGroupID": 0,
                    "shadow": 1,
                    "shadowCatcher": 0,
                    "subdivisionBoundaryInterop": 2,
                    "subdivisionCreaseWeight": 0.0,
                    "subdivisionFactor": 0,
                    "visibilityPrimaryOnly": 1
                }
            },
            "matrix": [
                0.00999999977648258,
                0.0,
                0.0,
                0.0,
                0.0,
                0.00999999977648258,
                0.0,
                0.0,
                0.0,
                0.0,
                0.00999999977648258,
                0.0,
                0.0,
                0.0,
                0.0,
                1.0
            ],
            "mesh": 1,
            "name": ""
        },
        {
            "name": "|top",
            "rotation": [
                -0.70710676908493,
                0.0,
                0.0,
                0.70710676908493
            ],
            "translation": [
                0.00212832097895443,
                10.0019636154175,
                0.0118449768051505
            ]
        },
        {
            "children": [
                10
            ],
            "name": "|pCube9",
            "scale": [
                3.78692436218262,
                2.24463868141174,
                1.0
            ],
            "translation": [
                0.00892373453825712,
                0.0400244817137718,
                -0.109880074858665
            ]
        },
        {
            "name": "|pCube8|transform3"
        },
        {
            "children": [
                6
            ],
            "name": "|pCube8",
            "scale": [
                2.83946084976196,
                1.0,
                1.0
            ],
            "translation": [
                0.0100760562345386,
                0.0389896407723427,
                -0.106940306723118
            ]
        },
        {
            "children": [
                16
            ],
            "name": "|pCube7",
            "scale": [
                2.83946084976196,
                1.0,
                1.0
            ],
            "translation": [
                0.00682353600859642,
                0.0354917012155056,
                -0.107941873371601
            ]
        },
        {
            "name": "|side",
            "rotation": [
                0.0,
                0.70710676908493,
                0.0,
                0.70710676908493
            ],
            "translation": [
                10.001916885376,
                0.0231549832969904,
                0.133192032575607
            ]
        },
        {
            "name": "|pCube9|transform2"
        },
        {
            "name": "|pCube6|transform5"
        },
        {
            "children": [
                3
            ],
            "name": "|extrudedSurface1",
            "translation": [
                -0.0764670372009277,
                0.0,
                0.0
            ]
        },
        {
            "children": [
                11
            ],
            "name": "|pCube6",
            "scale": [
                2.83946084976196,
                1.0,
                1.0
            ],
            "translation": [
                0.00479569798335433,
                0.0323994047939777,
                -0.10888098180294
            ]
        },
        {
            "name": "|nurbsCircle1",
            "translation": [
                -0.0752252265810966,
                0.0,
                0.0
            ]
        },
        {
            "name": "|pCube10|transform1"
        },
        {
            "name": "|pCube7|transform4"
        },
        {
            "children": [
                0
            ],
            "name": "|persp",
            "rotation": [
                -0.00818846840411425,
                -0.00523578841239214,
                -4.28751118306536e-05,
                0.999952793121338
            ],
            "translation": [
                -0.00170951138716191,
                0.042303740978241,
                0.245291113853455
            ]
        },
        {
            "name": "|curve1",
            "translation": [
                -0.0752252265810966,
                0.0,
                0.0
            ]
        },
        {
            "name": "|front",
            "translation": [
                0.000490105361677706,
                0.00938838068395853,
                10.0011024475098
            ]
        },
        {
            "children": [
                2
            ],
            "name": "|nurbsToPoly1",
            "rotation": [
                0.0,
                0.0,
                0.893597841262817,
                0.448868423700333
            ],
            "translation": [
                -0.0915782600641251,
                0.23376190662384,
                0.0
            ]
        },
        {
            "children": [
                15
            ],
            "name": "|pCube10",
            "scale": [
                2.83946084976196,
                1.0,
                1.0
            ],
            "translation": [
                0.0125725520774722,
                0.045204184949398,
                -0.107333555817604
            ]
        }
    ],
    "scene": 0,
    "scenes": [
        {
            "extensions": {
                "AMD_RPR_grids": { },
                "AMD_RPR_heteroVolumes": { }
            },
            "extras": {
                "rpr.scene.parameters": { }
            },
            "name": "",
            "nodes": [
                20,
                1,
                12,
                17
            ]
        }
    ]
}